<svg xmlns="http://www.w3.org/2000/svg" width="66" height="80" viewBox="0 0 66 80">
    <g fill="none" fill-rule="evenodd">
        <g>
            <g>
                <g>
                    <g>
                        <path fill="#000" fill-rule="nonzero" d="M32.796 0L0 79.378 32.796 79.378 65.594 79.378z" transform="translate(-1197 -584) translate(120 538) translate(1020) translate(57 46)"/>
                        <g fill="#DAB866" fill-rule="nonzero">
                            <path d="M40.588 2.622L39.578.156 25.92 13.499 27.794 15.136 38.684 4.479 49.534 30.751 51.81 29.805zM11.232 2.602L12.24.133 25.92 13.499 24.033 15.104 13.134 4.459 2.285 30.728.007 29.785z" transform="translate(-1197 -584) translate(120 538) translate(1020) translate(57 46) translate(6.896 37.778)"/>
                        </g>
                        <path fill="#2D2D2C" d="M0 79.378L32.798 61.57 65.594 79.378z" transform="translate(-1197 -584) translate(120 538) translate(1020) translate(57 46)"/>
                        <path fill="#3C3C3B" d="M32.798 61.57L38.785 79.378 50.108 70.97z" transform="translate(-1197 -584) translate(120 538) translate(1020) translate(57 46)"/>
                        <path fill="#DAB866" fill-rule="nonzero" d="M32.604 30.123h6.183v1.321l-1.128.114-.288.316v5.272c-.711.36-1.438.63-2.182.807-.743.178-1.51.264-2.295.264-2.005 0-3.623-.74-4.854-2.224-1.231-1.482-1.844-3.425-1.844-5.825 0-2.415.625-4.35 1.881-5.803 1.254-1.451 2.918-2.177 4.994-2.177.67 0 1.362.069 2.074.21.712.138 1.455.348 2.231.627v4.21h-1.635l-.411-2.8-.323-.373c-.256-.074-.46-.129-.613-.158-.153-.03-.29-.045-.419-.045-1.376 0-2.453.566-3.226 1.694-.776 1.128-1.162 2.691-1.162 4.684 0 1.904.404 3.427 1.211 4.573.808 1.143 1.884 1.716 3.231 1.716h.289v-4.652l-.306-.316-1.399-.114v-1.32h-.01z" transform="translate(-1197 -584) translate(120 538) translate(1020) translate(57 46)"/>
                    </g>
                </g>
            </g>
        </g>
    </g>
</svg>
