<svg xmlns="http://www.w3.org/2000/svg" width="66" height="80" viewBox="0 0 66 80">
    <g fill="none" fill-rule="evenodd">
        <g fill="#1A1919" fill-rule="nonzero">
            <g>
                <g>
                    <g>
                        <path d="M33.024 0L0 79.156h65.771L33.024 0zm0 8.298l12.158 30.79-12.158 11.79-12.046-11.79 12.046-30.79zM20.037 41.576l12.967 12.803L45.98 41.54l13.006 33.594H7.042l12.995-33.557z" transform="translate(-585 -584) translate(120 538) translate(408) translate(57 46)"/>
                        <path d="M36.71 36.054c-.557-.995-1.956-2.06-1.956-2.06 1.654 0 3.161-1.777 3.013-4.14-.145-2.27-2.026-3.402-3.81-3.402H28.579v13.935h2.369v-5.591c1.38 0 2.245.089 2.84.995.598.912 2.8 4.596 2.8 4.596h2.793s-2.107-3.338-2.67-4.333zm-3.63-3.2h-2.135v-4.508h1.928c1.057 0 2.38.533 2.38 1.97 0 1.432-.94 2.538-2.173 2.538z" transform="translate(-585 -584) translate(120 538) translate(408) translate(57 46)"/>
                    </g>
                </g>
            </g>
        </g>
    </g>
</svg>
